<svg id="Layer_1" data-name="Layer 1" xmlns="http://www.w3.org/2000/svg" width="128" height="128" viewBox="0 0 128 128"><path d="M81.72,93.87a29.65,29.65,0,0,1-21.2-8.73Q52.3,77,44.19,68.82a10.07,10.07,0,0,1,5.27-17.06,9.62,9.62,0,0,1,9,2.82c4.92,4.89,9.82,9.81,14.73,14.71,2,2,4.55,2.16,6.44.53A4.55,4.55,0,0,0,79.7,63c-3.16-3.2-6.36-6.38-9.56-9.56-2.63-2.61-5.11-5.4-8-7.77-7.46-6.24-16-7.7-24.95-4s-14,10.44-14.94,20A24.17,24.17,0,0,0,48.59,88.19a24.83,24.83,0,0,0,4.35-.79c1.91-.51,3.4.21,3.82,1.82s-.48,3-2.34,3.54a29.85,29.85,0,1,1-13.79-58c10.26-2,19.29.84,26.81,8.11,5.5,5.32,10.86,10.79,16.25,16.23a9.73,9.73,0,0,1,2.5,10.57,10.08,10.08,0,0,1-16.65,3.83c-4.92-4.89-9.81-9.82-14.73-14.71-2.13-2.13-4.88-2.2-6.78-.24A4.36,4.36,0,0,0,48,64.68C53.71,70.49,59.31,76.47,65.35,82,72.46,88.45,81,90,90,86.71s14.32-10,15.61-19.48C107.4,53.9,98.5,42.16,85.2,40a24.56,24.56,0,0,0-10.54.7,2.77,2.77,0,1,1-1.33-5.37c10.49-2.75,20-.74,28.09,6.47a29.54,29.54,0,0,1,2.78,41.61A29,29,0,0,1,81.72,93.87Z"/><path d="M64,5.08A58.92,58.92,0,1,1,5.08,64,59,59,0,0,1,64,5.08m0-4.5A63.42,63.42,0,1,0,127.42,64,63.43,63.43,0,0,0,64,.58Z"/></svg>